<?xml version="1.0" encoding="utf-8"?>
<!-- Uploaded to: SVG Repo, www.svgrepo.com, Generator: SVG Repo Mixer Tools -->
<svg width="800px" height="800px" viewBox="0 0 1024 1024" class="icon"  version="1.1" xmlns="http://www.w3.org/2000/svg"><path d="M455.176 531.168V183.936h140.608v347.232h129.304v-387.2c0-49.248-40.056-89.344-89.296-89.344H415.176c-49.248 0-89.312 40.096-89.312 89.344v387.192h129.312z" fill="#E5226B" /><path d="M1016 876.376c0 50.888-41.224 92.112-92.056 92.112H100.12C49.224 968.488 8 927.264 8 876.376V374.424c0-50.888 41.224-92.12 92.12-92.12h823.832c50.832 0 92.056 41.232 92.056 92.12v501.952z" fill="#F5B146" /><path d="M342.064 968.488H100.12C49.224 968.488 8 927.264 8 876.376V374.424c0-50.888 41.224-92.12 92.12-92.12h791.504l-549.56 686.184z" fill="#FFC83E" /><path d="M762.824 283.216h64.648v686.16h-64.648zM201.96 283.216h64.656v686.16h-64.656z" fill="#0092D2" /><path d="M234.288 283.216h32.328v686.16h-32.328zM795.144 283.216h32.328v686.16h-32.328z" fill="#0085BF" /></svg>